<?xml version="1.0" encoding="utf-8" standalone="no"?>
<!DOCTYPE svg PUBLIC "-//W3C//DTD SVG 1.1//EN"
  "http://www.w3.org/Graphics/SVG/1.1/DTD/svg11.dtd">
<svg xmlns:xlink="http://www.w3.org/1999/xlink" width="446.76pt" height="186.16pt" viewBox="0 0 446.76 186.16" xmlns="http://www.w3.org/2000/svg" version="1.1">
 <metadata>
  <rdf:RDF xmlns:dc="http://purl.org/dc/elements/1.1/" xmlns:cc="http://creativecommons.org/ns#" xmlns:rdf="http://www.w3.org/1999/02/22-rdf-syntax-ns#">
   <cc:Work>
    <dc:type rdf:resource="http://purl.org/dc/dcmitype/StillImage"/>
    <dc:date>2024-05-20T19:50:15.200465</dc:date>
    <dc:format>image/svg+xml</dc:format>
    <dc:creator>
     <cc:Agent>
      <dc:title>Matplotlib v3.8.4, https://matplotlib.org/</dc:title>
     </cc:Agent>
    </dc:creator>
   </cc:Work>
  </rdf:RDF>
 </metadata>
 <defs>
  <style type="text/css">*{stroke-linejoin: round; stroke-linecap: butt}</style>
 </defs>
 <g id="figure_1">
  <g id="patch_1">
   <path d="M 0 186.16 
L 446.76 186.16 
L 446.76 0 
L 0 0 
L 0 186.16 
z
" style="fill: none"/>
  </g>
  <g id="axes_1">
   <g id="line2d_1">
    <path d="M 7.38 100.48 
L 43.38 100.48 
L 46.38 91.48 
L 52.38 109.48 
L 58.38 91.48 
L 64.38 109.48 
L 70.38 91.48 
L 76.38 109.48 
L 79.38 100.48 
L 115.38 100.48 
" clip-path="url(#p2f8e4c15f2)" style="fill: none; stroke: #000000; stroke-width: 2; stroke-linecap: round"/>
   </g>
   <g id="line2d_2">
    <path d="M 115.38 100.48 
L 115.38 64.48 
L 115.38 28.48 
" clip-path="url(#p2f8e4c15f2)" style="fill: none; stroke: #000000; stroke-width: 2; stroke-linecap: round"/>
   </g>
   <g id="line2d_3">
    <path d="M 115.38 28.48 
L 151.38 28.48 
L 154.38 19.48 
L 160.38 37.48 
L 166.38 19.48 
L 172.38 37.48 
L 178.38 19.48 
L 184.38 37.48 
L 187.38 28.48 
L 223.38 28.48 
" clip-path="url(#p2f8e4c15f2)" style="fill: none; stroke: #000000; stroke-width: 2; stroke-linecap: round"/>
   </g>
   <g id="line2d_4">
    <path d="M 223.38 28.48 
L 259.38 28.48 
L 262.38 19.48 
L 268.38 37.48 
L 274.38 19.48 
L 280.38 37.48 
L 286.38 19.48 
L 292.38 37.48 
L 295.38 28.48 
L 331.38 28.48 
" clip-path="url(#p2f8e4c15f2)" style="fill: none; stroke: #000000; stroke-width: 2; stroke-linecap: round"/>
   </g>
   <g id="line2d_5">
    <path d="M 331.38 28.48 
L 331.38 64.48 
L 331.38 100.48 
" clip-path="url(#p2f8e4c15f2)" style="fill: none; stroke: #000000; stroke-width: 2; stroke-linecap: round"/>
   </g>
   <g id="line2d_6">
    <path d="M 331.38 100.48 
L 367.38 100.48 
L 370.38 91.48 
L 376.38 109.48 
L 382.38 91.48 
L 388.38 109.48 
L 394.38 91.48 
L 400.38 109.48 
L 403.38 100.48 
L 439.38 100.48 
" clip-path="url(#p2f8e4c15f2)" style="fill: none; stroke: #000000; stroke-width: 2; stroke-linecap: round"/>
   </g>
   <g id="line2d_7">
    <path d="M 115.38 100.48 
L 115.38 136.48 
L 115.38 172.48 
" clip-path="url(#p2f8e4c15f2)" style="fill: none; stroke: #000000; stroke-width: 2; stroke-linecap: round"/>
   </g>
   <g id="line2d_8">
    <path d="M 115.38 172.48 
L 142.38 172.48 
L 169.38 172.48 
" clip-path="url(#p2f8e4c15f2)" style="fill: none; stroke: #000000; stroke-width: 2; stroke-linecap: round"/>
   </g>
   <g id="line2d_9">
    <path d="M 169.38 172.48 
L 205.38 172.48 
L 208.38 163.48 
L 214.38 181.48 
L 220.38 163.48 
L 226.38 181.48 
L 232.38 163.48 
L 238.38 181.48 
L 241.38 172.48 
L 277.38 172.48 
" clip-path="url(#p2f8e4c15f2)" style="fill: none; stroke: #000000; stroke-width: 2; stroke-linecap: round"/>
   </g>
   <g id="line2d_10">
    <path d="M 277.38 172.48 
L 304.38 172.48 
L 331.38 172.48 
" clip-path="url(#p2f8e4c15f2)" style="fill: none; stroke: #000000; stroke-width: 2; stroke-linecap: round"/>
   </g>
   <g id="line2d_11">
    <path d="M 331.38 172.48 
L 331.38 136.48 
L 331.38 100.48 
" clip-path="url(#p2f8e4c15f2)" style="fill: none; stroke: #000000; stroke-width: 2; stroke-linecap: round"/>
   </g>
   <g id="text_1">
    <!-- $2 \ k\Omega$ -->
    <g transform="translate(45.21 84.968437) scale(0.14 -0.14)">
     <defs>
      <path id="DejaVuSans-32" d="M 1228 531 
L 3431 531 
L 3431 0 
L 469 0 
L 469 531 
Q 828 903 1448 1529 
Q 2069 2156 2228 2338 
Q 2531 2678 2651 2914 
Q 2772 3150 2772 3378 
Q 2772 3750 2511 3984 
Q 2250 4219 1831 4219 
Q 1534 4219 1204 4116 
Q 875 4013 500 3803 
L 500 4441 
Q 881 4594 1212 4672 
Q 1544 4750 1819 4750 
Q 2544 4750 2975 4387 
Q 3406 4025 3406 3419 
Q 3406 3131 3298 2873 
Q 3191 2616 2906 2266 
Q 2828 2175 2409 1742 
Q 1991 1309 1228 531 
z
" transform="scale(0.015625)"/>
      <path id="DejaVuSans-Oblique-6b" d="M 1172 4863 
L 1747 4863 
L 1197 2028 
L 3169 3500 
L 3916 3500 
L 1716 1825 
L 3322 0 
L 2625 0 
L 1131 1709 
L 800 0 
L 225 0 
L 1172 4863 
z
" transform="scale(0.015625)"/>
      <path id="DejaVuSans-3a9" d="M 4647 556 
L 4647 0 
L 2772 0 
L 2772 556 
Q 3325 859 3634 1378 
Q 3944 1897 3944 2528 
Q 3944 3278 3531 3731 
Q 3119 4184 2444 4184 
Q 1769 4184 1355 3729 
Q 941 3275 941 2528 
Q 941 1897 1250 1378 
Q 1563 859 2119 556 
L 2119 0 
L 244 0 
L 244 556 
L 1241 556 
Q 747 991 519 1456 
Q 294 1922 294 2497 
Q 294 3491 894 4106 
Q 1491 4722 2444 4722 
Q 3391 4722 3994 4106 
Q 4594 3494 4594 2528 
Q 4594 1922 4372 1459 
Q 4150 997 3647 556 
L 4647 556 
z
" transform="scale(0.015625)"/>
     </defs>
     <use xlink:href="#DejaVuSans-32" transform="translate(0 0.015625)"/>
     <use xlink:href="#DejaVuSans-Oblique-6b" transform="translate(96.093425 0.015625)"/>
     <use xlink:href="#DejaVuSans-3a9" transform="translate(154.003582 0.015625)"/>
    </g>
   </g>
   <g id="text_2">
    <!-- $5 \ M\Omega$ -->
    <g transform="translate(151.25 12.968437) scale(0.14 -0.14)">
     <defs>
      <path id="DejaVuSans-35" d="M 691 4666 
L 3169 4666 
L 3169 4134 
L 1269 4134 
L 1269 2991 
Q 1406 3038 1543 3061 
Q 1681 3084 1819 3084 
Q 2600 3084 3056 2656 
Q 3513 2228 3513 1497 
Q 3513 744 3044 326 
Q 2575 -91 1722 -91 
Q 1428 -91 1123 -41 
Q 819 9 494 109 
L 494 744 
Q 775 591 1075 516 
Q 1375 441 1709 441 
Q 2250 441 2565 725 
Q 2881 1009 2881 1497 
Q 2881 1984 2565 2268 
Q 2250 2553 1709 2553 
Q 1456 2553 1204 2497 
Q 953 2441 691 2322 
L 691 4666 
z
" transform="scale(0.015625)"/>
      <path id="DejaVuSans-Oblique-4d" d="M 1081 4666 
L 2028 4666 
L 2572 1522 
L 4378 4666 
L 5350 4666 
L 4441 0 
L 3828 0 
L 4622 4091 
L 2791 897 
L 2175 897 
L 1581 4103 
L 788 0 
L 172 0 
L 1081 4666 
z
" transform="scale(0.015625)"/>
     </defs>
     <use xlink:href="#DejaVuSans-35" transform="translate(0 0.21875)"/>
     <use xlink:href="#DejaVuSans-Oblique-4d" transform="translate(96.093425 0.21875)"/>
     <use xlink:href="#DejaVuSans-3a9" transform="translate(182.372722 0.21875)"/>
    </g>
   </g>
   <g id="text_3">
    <!-- $200 \ k\Omega$ -->
    <g transform="translate(252.32 12.968437) scale(0.14 -0.14)">
     <defs>
      <path id="DejaVuSans-30" d="M 2034 4250 
Q 1547 4250 1301 3770 
Q 1056 3291 1056 2328 
Q 1056 1369 1301 889 
Q 1547 409 2034 409 
Q 2525 409 2770 889 
Q 3016 1369 3016 2328 
Q 3016 3291 2770 3770 
Q 2525 4250 2034 4250 
z
M 2034 4750 
Q 2819 4750 3233 4129 
Q 3647 3509 3647 2328 
Q 3647 1150 3233 529 
Q 2819 -91 2034 -91 
Q 1250 -91 836 529 
Q 422 1150 422 2328 
Q 422 3509 836 4129 
Q 1250 4750 2034 4750 
z
" transform="scale(0.015625)"/>
     </defs>
     <use xlink:href="#DejaVuSans-32" transform="translate(0 0.015625)"/>
     <use xlink:href="#DejaVuSans-30" transform="translate(63.623047 0.015625)"/>
     <use xlink:href="#DejaVuSans-30" transform="translate(127.246094 0.015625)"/>
     <use xlink:href="#DejaVuSans-Oblique-6b" transform="translate(223.339519 0.015625)"/>
     <use xlink:href="#DejaVuSans-3a9" transform="translate(281.249675 0.015625)"/>
    </g>
   </g>
   <g id="patch_2">
    <path d="M 439.38 103.18 
C 440.096048 103.18 440.782866 102.895511 441.289188 102.389188 
C 441.795511 101.882866 442.08 101.196048 442.08 100.48 
C 442.08 99.763952 441.795511 99.077134 441.289188 98.570812 
C 440.782866 98.064489 440.096048 97.78 439.38 97.78 
C 438.663952 97.78 437.977134 98.064489 437.470812 98.570812 
C 436.964489 99.077134 436.68 99.763952 436.68 100.48 
C 436.68 101.196048 436.964489 101.882866 437.470812 102.389188 
C 437.977134 102.895511 438.663952 103.18 439.38 103.18 
z
" clip-path="url(#p2f8e4c15f2)" style="stroke: #000000; stroke-width: 2; stroke-linejoin: miter"/>
   </g>
   <g id="text_4">
    <!-- $1 \ M\Omega$ -->
    <g transform="translate(368.6 84.968437) scale(0.14 -0.14)">
     <defs>
      <path id="DejaVuSans-31" d="M 794 531 
L 1825 531 
L 1825 4091 
L 703 3866 
L 703 4441 
L 1819 4666 
L 2450 4666 
L 2450 531 
L 3481 531 
L 3481 0 
L 794 0 
L 794 531 
z
" transform="scale(0.015625)"/>
     </defs>
     <use xlink:href="#DejaVuSans-31" transform="translate(0 0.21875)"/>
     <use xlink:href="#DejaVuSans-Oblique-4d" transform="translate(96.093425 0.21875)"/>
     <use xlink:href="#DejaVuSans-3a9" transform="translate(182.372722 0.21875)"/>
    </g>
   </g>
   <g id="text_5">
    <!-- $600 \ \Omega$ -->
    <g transform="translate(202.38 156.968437) scale(0.14 -0.14)">
     <defs>
      <path id="DejaVuSans-36" d="M 2113 2584 
Q 1688 2584 1439 2293 
Q 1191 2003 1191 1497 
Q 1191 994 1439 701 
Q 1688 409 2113 409 
Q 2538 409 2786 701 
Q 3034 994 3034 1497 
Q 3034 2003 2786 2293 
Q 2538 2584 2113 2584 
z
M 3366 4563 
L 3366 3988 
Q 3128 4100 2886 4159 
Q 2644 4219 2406 4219 
Q 1781 4219 1451 3797 
Q 1122 3375 1075 2522 
Q 1259 2794 1537 2939 
Q 1816 3084 2150 3084 
Q 2853 3084 3261 2657 
Q 3669 2231 3669 1497 
Q 3669 778 3244 343 
Q 2819 -91 2113 -91 
Q 1303 -91 875 529 
Q 447 1150 447 2328 
Q 447 3434 972 4092 
Q 1497 4750 2381 4750 
Q 2619 4750 2861 4703 
Q 3103 4656 3366 4563 
z
" transform="scale(0.015625)"/>
     </defs>
     <use xlink:href="#DejaVuSans-36" transform="translate(0 0.78125)"/>
     <use xlink:href="#DejaVuSans-30" transform="translate(63.623047 0.78125)"/>
     <use xlink:href="#DejaVuSans-30" transform="translate(127.246094 0.78125)"/>
     <use xlink:href="#DejaVuSans-3a9" transform="translate(223.339519 0.78125)"/>
    </g>
   </g>
   <g id="patch_3">
    <path d="M 7.38 103.18 
C 8.096048 103.18 8.782866 102.895511 9.289188 102.389188 
C 9.795511 101.882866 10.08 101.196048 10.08 100.48 
C 10.08 99.763952 9.795511 99.077134 9.289188 98.570812 
C 8.782866 98.064489 8.096048 97.78 7.38 97.78 
C 6.663952 97.78 5.977134 98.064489 5.470812 98.570812 
C 4.964489 99.077134 4.68 99.763952 4.68 100.48 
C 4.68 101.196048 4.964489 101.882866 5.470812 102.389188 
C 5.977134 102.895511 6.663952 103.18 7.38 103.18 
z
" clip-path="url(#p2f8e4c15f2)" style="stroke: #000000; stroke-width: 2; stroke-linejoin: miter"/>
   </g>
  </g>
 </g>
 <defs>
  <clipPath id="p2f8e4c15f2">
   <rect x="0" y="-0" width="446.76" height="186.16"/>
  </clipPath>
 </defs>
</svg>
