<?xml version="1.0" encoding="utf-8" standalone="no"?>
<!DOCTYPE svg PUBLIC "-//W3C//DTD SVG 1.1//EN"
  "http://www.w3.org/Graphics/SVG/1.1/DTD/svg11.dtd">
<svg xmlns:xlink="http://www.w3.org/1999/xlink" width="549.36pt" height="186.16pt" viewBox="0 0 549.36 186.16" xmlns="http://www.w3.org/2000/svg" version="1.1">
 <metadata>
  <rdf:RDF xmlns:dc="http://purl.org/dc/elements/1.1/" xmlns:cc="http://creativecommons.org/ns#" xmlns:rdf="http://www.w3.org/1999/02/22-rdf-syntax-ns#">
   <cc:Work>
    <dc:type rdf:resource="http://purl.org/dc/dcmitype/StillImage"/>
    <dc:date>2024-05-20T17:50:04.807879</dc:date>
    <dc:format>image/svg+xml</dc:format>
    <dc:creator>
     <cc:Agent>
      <dc:title>Matplotlib v3.8.4, https://matplotlib.org/</dc:title>
     </cc:Agent>
    </dc:creator>
   </cc:Work>
  </rdf:RDF>
 </metadata>
 <defs>
  <style type="text/css">*{stroke-linejoin: round; stroke-linecap: butt}</style>
 </defs>
 <g id="figure_1">
  <g id="patch_1">
   <path d="M 0 186.16 
L 549.36 186.16 
L 549.36 0 
L 0 0 
L 0 186.16 
z
" style="fill: none"/>
  </g>
  <g id="axes_1">
   <g id="line2d_1">
    <path d="M 4.68 100.48 
L 40.68 100.48 
L 43.68 91.48 
L 49.68 109.48 
L 55.68 91.48 
L 61.68 109.48 
L 67.68 91.48 
L 73.68 109.48 
L 76.68 100.48 
L 112.68 100.48 
" clip-path="url(#p6d1593284e)" style="fill: none; stroke: #000000; stroke-width: 2; stroke-linecap: round"/>
   </g>
   <g id="line2d_2">
    <path d="M 112.68 100.48 
L 148.68 100.48 
L 151.68 91.48 
L 157.68 109.48 
L 163.68 91.48 
L 169.68 109.48 
L 175.68 91.48 
L 181.68 109.48 
L 184.68 100.48 
L 220.68 100.48 
" clip-path="url(#p6d1593284e)" style="fill: none; stroke: #000000; stroke-width: 2; stroke-linecap: round"/>
   </g>
   <g id="line2d_3">
    <path d="M 220.68 100.48 
L 220.68 64.48 
L 220.68 28.48 
" clip-path="url(#p6d1593284e)" style="fill: none; stroke: #000000; stroke-width: 2; stroke-linecap: round"/>
   </g>
   <g id="line2d_4">
    <path d="M 220.68 28.48 
L 256.68 28.48 
L 259.68 19.48 
L 265.68 37.48 
L 271.68 19.48 
L 277.68 37.48 
L 283.68 19.48 
L 289.68 37.48 
L 292.68 28.48 
L 328.68 28.48 
" clip-path="url(#p6d1593284e)" style="fill: none; stroke: #000000; stroke-width: 2; stroke-linecap: round"/>
   </g>
   <g id="line2d_5">
    <path d="M 328.68 28.48 
L 328.68 64.48 
L 328.68 100.48 
" clip-path="url(#p6d1593284e)" style="fill: none; stroke: #000000; stroke-width: 2; stroke-linecap: round"/>
   </g>
   <g id="line2d_6">
    <path d="M 328.68 100.48 
L 364.68 100.48 
L 367.68 91.48 
L 373.68 109.48 
L 379.68 91.48 
L 385.68 109.48 
L 391.68 91.48 
L 397.68 109.48 
L 400.68 100.48 
L 436.68 100.48 
" clip-path="url(#p6d1593284e)" style="fill: none; stroke: #000000; stroke-width: 2; stroke-linecap: round"/>
   </g>
   <g id="line2d_7">
    <path d="M 436.68 100.48 
L 472.68 100.48 
L 475.68 91.48 
L 481.68 109.48 
L 487.68 91.48 
L 493.68 109.48 
L 499.68 91.48 
L 505.68 109.48 
L 508.68 100.48 
L 544.68 100.48 
" clip-path="url(#p6d1593284e)" style="fill: none; stroke: #000000; stroke-width: 2; stroke-linecap: round"/>
   </g>
   <g id="line2d_8">
    <path d="M 220.68 100.48 
L 256.68 100.48 
L 259.68 91.48 
L 265.68 109.48 
L 271.68 91.48 
L 277.68 109.48 
L 283.68 91.48 
L 289.68 109.48 
L 292.68 100.48 
L 328.68 100.48 
" clip-path="url(#p6d1593284e)" style="fill: none; stroke: #000000; stroke-width: 2; stroke-linecap: round"/>
   </g>
   <g id="line2d_9">
    <path d="M 112.68 100.48 
L 112.68 136.48 
L 112.68 172.48 
" clip-path="url(#p6d1593284e)" style="fill: none; stroke: #000000; stroke-width: 2; stroke-linecap: round"/>
   </g>
   <g id="line2d_10">
    <path d="M 112.68 172.48 
L 139.68 172.48 
L 166.68 172.48 
" clip-path="url(#p6d1593284e)" style="fill: none; stroke: #000000; stroke-width: 2; stroke-linecap: round"/>
   </g>
   <g id="line2d_11">
    <path d="M 166.68 172.48 
L 202.68 172.48 
L 205.68 163.48 
L 211.68 181.48 
L 217.68 163.48 
L 223.68 181.48 
L 229.68 163.48 
L 235.68 181.48 
L 238.68 172.48 
L 274.68 172.48 
" clip-path="url(#p6d1593284e)" style="fill: none; stroke: #000000; stroke-width: 2; stroke-linecap: round"/>
   </g>
   <g id="line2d_12">
    <path d="M 274.68 172.48 
L 310.68 172.48 
L 313.68 163.48 
L 319.68 181.48 
L 325.68 163.48 
L 331.68 181.48 
L 337.68 163.48 
L 343.68 181.48 
L 346.68 172.48 
L 382.68 172.48 
" clip-path="url(#p6d1593284e)" style="fill: none; stroke: #000000; stroke-width: 2; stroke-linecap: round"/>
   </g>
   <g id="line2d_13">
    <path d="M 382.68 172.48 
L 409.68 172.48 
L 436.68 172.48 
" clip-path="url(#p6d1593284e)" style="fill: none; stroke: #000000; stroke-width: 2; stroke-linecap: round"/>
   </g>
   <g id="line2d_14">
    <path d="M 436.68 172.48 
L 436.68 136.48 
L 436.68 100.48 
" clip-path="url(#p6d1593284e)" style="fill: none; stroke: #000000; stroke-width: 2; stroke-linecap: round"/>
   </g>
   <g id="patch_2">
    <path d="M 112.68 103.18 
C 113.396048 103.18 114.082866 102.895511 114.589188 102.389188 
C 115.095511 101.882866 115.38 101.196048 115.38 100.48 
C 115.38 99.763952 115.095511 99.077134 114.589188 98.570812 
C 114.082866 98.064489 113.396048 97.78 112.68 97.78 
C 111.963952 97.78 111.277134 98.064489 110.770812 98.570812 
C 110.264489 99.077134 109.98 99.763952 109.98 100.48 
C 109.98 101.196048 110.264489 101.882866 110.770812 102.389188 
C 111.277134 102.895511 111.963952 103.18 112.68 103.18 
z
" clip-path="url(#p6d1593284e)" style="stroke: #000000; stroke-width: 2; stroke-linejoin: miter"/>
   </g>
   <g id="text_1">
    <!-- $R_1$ -->
    <g transform="translate(51.84 84.968437) scale(0.14 -0.14)">
     <defs>
      <path id="DejaVuSans-Oblique-52" d="M 1613 4147 
L 1294 2491 
L 2106 2491 
Q 2584 2491 2879 2755 
Q 3175 3019 3175 3444 
Q 3175 3784 2976 3965 
Q 2778 4147 2406 4147 
L 1613 4147 
z
M 2772 2241 
Q 2972 2194 3105 2009 
Q 3238 1825 3413 1275 
L 3809 0 
L 3144 0 
L 2778 1197 
Q 2638 1659 2453 1815 
Q 2269 1972 1888 1972 
L 1191 1972 
L 806 0 
L 172 0 
L 1081 4666 
L 2503 4666 
Q 3150 4666 3495 4373 
Q 3841 4081 3841 3531 
Q 3841 3044 3547 2687 
Q 3253 2331 2772 2241 
z
" transform="scale(0.015625)"/>
      <path id="DejaVuSans-31" d="M 794 531 
L 1825 531 
L 1825 4091 
L 703 3866 
L 703 4441 
L 1819 4666 
L 2450 4666 
L 2450 531 
L 3481 531 
L 3481 0 
L 794 0 
L 794 531 
z
" transform="scale(0.015625)"/>
     </defs>
     <use xlink:href="#DejaVuSans-Oblique-52" transform="translate(0 0.09375)"/>
     <use xlink:href="#DejaVuSans-31" transform="translate(69.482422 -16.3125) scale(0.7)"/>
    </g>
   </g>
   <g id="patch_3">
    <path d="M 220.68 103.18 
C 221.396048 103.18 222.082866 102.895511 222.589188 102.389188 
C 223.095511 101.882866 223.38 101.196048 223.38 100.48 
C 223.38 99.763952 223.095511 99.077134 222.589188 98.570812 
C 222.082866 98.064489 221.396048 97.78 220.68 97.78 
C 219.963952 97.78 219.277134 98.064489 218.770812 98.570812 
C 218.264489 99.077134 217.98 99.763952 217.98 100.48 
C 217.98 101.196048 218.264489 101.882866 218.770812 102.389188 
C 219.277134 102.895511 219.963952 103.18 220.68 103.18 
z
" clip-path="url(#p6d1593284e)" style="stroke: #000000; stroke-width: 2; stroke-linejoin: miter"/>
   </g>
   <g id="text_2">
    <!-- $R_2$ -->
    <g transform="translate(159.84 84.968437) scale(0.14 -0.14)">
     <defs>
      <path id="DejaVuSans-32" d="M 1228 531 
L 3431 531 
L 3431 0 
L 469 0 
L 469 531 
Q 828 903 1448 1529 
Q 2069 2156 2228 2338 
Q 2531 2678 2651 2914 
Q 2772 3150 2772 3378 
Q 2772 3750 2511 3984 
Q 2250 4219 1831 4219 
Q 1534 4219 1204 4116 
Q 875 4013 500 3803 
L 500 4441 
Q 881 4594 1212 4672 
Q 1544 4750 1819 4750 
Q 2544 4750 2975 4387 
Q 3406 4025 3406 3419 
Q 3406 3131 3298 2873 
Q 3191 2616 2906 2266 
Q 2828 2175 2409 1742 
Q 1991 1309 1228 531 
z
" transform="scale(0.015625)"/>
     </defs>
     <use xlink:href="#DejaVuSans-Oblique-52" transform="translate(0 0.09375)"/>
     <use xlink:href="#DejaVuSans-32" transform="translate(69.482422 -16.3125) scale(0.7)"/>
    </g>
   </g>
   <g id="text_3">
    <!-- $R_3$ -->
    <g transform="translate(266.49 12.968437) scale(0.14 -0.14)">
     <defs>
      <path id="DejaVuSans-33" d="M 2597 2516 
Q 3050 2419 3304 2112 
Q 3559 1806 3559 1356 
Q 3559 666 3084 287 
Q 2609 -91 1734 -91 
Q 1441 -91 1130 -33 
Q 819 25 488 141 
L 488 750 
Q 750 597 1062 519 
Q 1375 441 1716 441 
Q 2309 441 2620 675 
Q 2931 909 2931 1356 
Q 2931 1769 2642 2001 
Q 2353 2234 1838 2234 
L 1294 2234 
L 1294 2753 
L 1863 2753 
Q 2328 2753 2575 2939 
Q 2822 3125 2822 3475 
Q 2822 3834 2567 4026 
Q 2313 4219 1838 4219 
Q 1578 4219 1281 4162 
Q 984 4106 628 3988 
L 628 4550 
Q 988 4650 1302 4700 
Q 1616 4750 1894 4750 
Q 2613 4750 3031 4423 
Q 3450 4097 3450 3541 
Q 3450 3153 3228 2886 
Q 3006 2619 2597 2516 
z
" transform="scale(0.015625)"/>
     </defs>
     <use xlink:href="#DejaVuSans-Oblique-52" transform="translate(0 0.09375)"/>
     <use xlink:href="#DejaVuSans-33" transform="translate(69.482422 -16.3125) scale(0.7)"/>
    </g>
   </g>
   <g id="text_4">
    <!-- $R_5$ -->
    <g transform="translate(374.49 84.968437) scale(0.14 -0.14)">
     <defs>
      <path id="DejaVuSans-35" d="M 691 4666 
L 3169 4666 
L 3169 4134 
L 1269 4134 
L 1269 2991 
Q 1406 3038 1543 3061 
Q 1681 3084 1819 3084 
Q 2600 3084 3056 2656 
Q 3513 2228 3513 1497 
Q 3513 744 3044 326 
Q 2575 -91 1722 -91 
Q 1428 -91 1123 -41 
Q 819 9 494 109 
L 494 744 
Q 775 591 1075 516 
Q 1375 441 1709 441 
Q 2250 441 2565 725 
Q 2881 1009 2881 1497 
Q 2881 1984 2565 2268 
Q 2250 2553 1709 2553 
Q 1456 2553 1204 2497 
Q 953 2441 691 2322 
L 691 4666 
z
" transform="scale(0.015625)"/>
     </defs>
     <use xlink:href="#DejaVuSans-Oblique-52" transform="translate(0 0.09375)"/>
     <use xlink:href="#DejaVuSans-35" transform="translate(69.482422 -16.3125) scale(0.7)"/>
    </g>
   </g>
   <g id="text_5">
    <!-- $R_8$ -->
    <g transform="translate(482.49 84.968437) scale(0.14 -0.14)">
     <defs>
      <path id="DejaVuSans-38" d="M 2034 2216 
Q 1584 2216 1326 1975 
Q 1069 1734 1069 1313 
Q 1069 891 1326 650 
Q 1584 409 2034 409 
Q 2484 409 2743 651 
Q 3003 894 3003 1313 
Q 3003 1734 2745 1975 
Q 2488 2216 2034 2216 
z
M 1403 2484 
Q 997 2584 770 2862 
Q 544 3141 544 3541 
Q 544 4100 942 4425 
Q 1341 4750 2034 4750 
Q 2731 4750 3128 4425 
Q 3525 4100 3525 3541 
Q 3525 3141 3298 2862 
Q 3072 2584 2669 2484 
Q 3125 2378 3379 2068 
Q 3634 1759 3634 1313 
Q 3634 634 3220 271 
Q 2806 -91 2034 -91 
Q 1263 -91 848 271 
Q 434 634 434 1313 
Q 434 1759 690 2068 
Q 947 2378 1403 2484 
z
M 1172 3481 
Q 1172 3119 1398 2916 
Q 1625 2713 2034 2713 
Q 2441 2713 2670 2916 
Q 2900 3119 2900 3481 
Q 2900 3844 2670 4047 
Q 2441 4250 2034 4250 
Q 1625 4250 1398 4047 
Q 1172 3844 1172 3481 
z
" transform="scale(0.015625)"/>
     </defs>
     <use xlink:href="#DejaVuSans-Oblique-52" transform="translate(0 0.09375)"/>
     <use xlink:href="#DejaVuSans-38" transform="translate(69.482422 -16.3125) scale(0.7)"/>
    </g>
   </g>
   <g id="patch_4">
    <path d="M 328.68 103.18 
C 329.396048 103.18 330.082866 102.895511 330.589188 102.389188 
C 331.095511 101.882866 331.38 101.196048 331.38 100.48 
C 331.38 99.763952 331.095511 99.077134 330.589188 98.570812 
C 330.082866 98.064489 329.396048 97.78 328.68 97.78 
C 327.963952 97.78 327.277134 98.064489 326.770812 98.570812 
C 326.264489 99.077134 325.98 99.763952 325.98 100.48 
C 325.98 101.196048 326.264489 101.882866 326.770812 102.389188 
C 327.277134 102.895511 327.963952 103.18 328.68 103.18 
z
" clip-path="url(#p6d1593284e)" style="stroke: #000000; stroke-width: 2; stroke-linejoin: miter"/>
   </g>
   <g id="text_6">
    <!-- $R_4$ -->
    <g transform="translate(267.84 84.968437) scale(0.14 -0.14)">
     <defs>
      <path id="DejaVuSans-34" d="M 2419 4116 
L 825 1625 
L 2419 1625 
L 2419 4116 
z
M 2253 4666 
L 3047 4666 
L 3047 1625 
L 3713 1625 
L 3713 1100 
L 3047 1100 
L 3047 0 
L 2419 0 
L 2419 1100 
L 313 1100 
L 313 1709 
L 2253 4666 
z
" transform="scale(0.015625)"/>
     </defs>
     <use xlink:href="#DejaVuSans-Oblique-52" transform="translate(0 0.09375)"/>
     <use xlink:href="#DejaVuSans-34" transform="translate(69.482422 -16.3125) scale(0.7)"/>
    </g>
   </g>
   <g id="text_7">
    <!-- $R_6$ -->
    <g transform="translate(212.49 156.968437) scale(0.14 -0.14)">
     <defs>
      <path id="DejaVuSans-36" d="M 2113 2584 
Q 1688 2584 1439 2293 
Q 1191 2003 1191 1497 
Q 1191 994 1439 701 
Q 1688 409 2113 409 
Q 2538 409 2786 701 
Q 3034 994 3034 1497 
Q 3034 2003 2786 2293 
Q 2538 2584 2113 2584 
z
M 3366 4563 
L 3366 3988 
Q 3128 4100 2886 4159 
Q 2644 4219 2406 4219 
Q 1781 4219 1451 3797 
Q 1122 3375 1075 2522 
Q 1259 2794 1537 2939 
Q 1816 3084 2150 3084 
Q 2853 3084 3261 2657 
Q 3669 2231 3669 1497 
Q 3669 778 3244 343 
Q 2819 -91 2113 -91 
Q 1303 -91 875 529 
Q 447 1150 447 2328 
Q 447 3434 972 4092 
Q 1497 4750 2381 4750 
Q 2619 4750 2861 4703 
Q 3103 4656 3366 4563 
z
" transform="scale(0.015625)"/>
     </defs>
     <use xlink:href="#DejaVuSans-Oblique-52" transform="translate(0 0.09375)"/>
     <use xlink:href="#DejaVuSans-36" transform="translate(69.482422 -16.3125) scale(0.7)"/>
    </g>
   </g>
   <g id="text_8">
    <!-- $R_7$ -->
    <g transform="translate(320.49 156.968437) scale(0.14 -0.14)">
     <defs>
      <path id="DejaVuSans-37" d="M 525 4666 
L 3525 4666 
L 3525 4397 
L 1831 0 
L 1172 0 
L 2766 4134 
L 525 4134 
L 525 4666 
z
" transform="scale(0.015625)"/>
     </defs>
     <use xlink:href="#DejaVuSans-Oblique-52" transform="translate(0 0.09375)"/>
     <use xlink:href="#DejaVuSans-37" transform="translate(69.482422 -16.3125) scale(0.7)"/>
    </g>
   </g>
   <g id="patch_5">
    <path d="M 436.68 103.18 
C 437.396048 103.18 438.082866 102.895511 438.589188 102.389188 
C 439.095511 101.882866 439.38 101.196048 439.38 100.48 
C 439.38 99.763952 439.095511 99.077134 438.589188 98.570812 
C 438.082866 98.064489 437.396048 97.78 436.68 97.78 
C 435.963952 97.78 435.277134 98.064489 434.770812 98.570812 
C 434.264489 99.077134 433.98 99.763952 433.98 100.48 
C 433.98 101.196048 434.264489 101.882866 434.770812 102.389188 
C 435.277134 102.895511 435.963952 103.18 436.68 103.18 
z
" clip-path="url(#p6d1593284e)" style="stroke: #000000; stroke-width: 2; stroke-linejoin: miter"/>
   </g>
  </g>
 </g>
 <defs>
  <clipPath id="p6d1593284e">
   <rect x="0" y="-0" width="549.36" height="186.16"/>
  </clipPath>
 </defs>
</svg>
